<svg width="103" height="26" viewBox="0 0 103 26" fill="none" xmlns="http://www.w3.org/2000/svg">
<path fill-rule="evenodd" clip-rule="evenodd" d="M10.0963 6.98759C10.0603 6.98759 10.0244 6.99202 9.98839 7.00089C6.65009 7.81122 3.93449 11.3785 3.93449 14.9524C3.93449 19.4485 7.64371 23.1067 12.2038 23.1067C16.3143 23.1067 19.7493 20.219 20.372 16.2394C20.3765 16.2061 20.3922 16.1097 20.3 16.0021C20.2124 15.9013 20.073 15.8414 19.9269 15.8414C18.3409 15.8414 17.1303 15.8769 16.185 15.9035C13.8966 15.9711 12.9502 15.9966 12.015 15.3126C10.6055 14.2828 10.4863 12.5136 10.4863 7.31017C10.4863 7.21705 10.4459 7.13945 10.3649 7.07738C10.2896 7.01862 10.1941 6.98759 10.0963 6.98759M12.2038 24.7695C6.71416 24.7695 2.24847 20.3653 2.24847 14.9524C2.24847 10.6601 5.53957 6.36792 9.58487 5.38576C10.2166 5.2339 10.8955 5.37579 11.4058 5.76821C11.8925 6.14511 12.1723 6.70713 12.1723 7.31017C12.1723 12.1711 12.3387 13.4791 13.0187 13.9768C13.4649 14.3016 14.0764 14.2983 16.1367 14.2418C17.0944 14.2141 18.3207 14.1786 19.9269 14.1786C20.5676 14.1786 21.1711 14.4491 21.5803 14.9202C21.9602 15.3581 22.1266 15.9301 22.0389 16.4932C21.288 21.2876 17.1517 24.7695 12.2038 24.7695" fill="#FFAB00"/>
<mask id="mask0_348_659" style="mask-type:luminance" maskUnits="userSpaceOnUse" x="14" y="1" width="12" height="12">
<path fill-rule="evenodd" clip-rule="evenodd" d="M14.0209 1.10907H25.7319V12.515H14.0209V1.10907Z" fill="white"/>
</mask>
<g mask="url(#mask0_348_659)">
<path fill-rule="evenodd" clip-rule="evenodd" d="M15.7483 2.7733C15.6246 5.56568 15.8078 9.17283 15.8933 10.6017C15.8978 10.6871 15.9607 10.7492 16.0461 10.7536C17.2016 10.819 21.1828 11.0008 24.0457 10.5851C24.0524 9.02872 22.9723 6.91808 21.3458 5.31516C19.6778 3.67232 17.704 2.7733 15.773 2.7733H15.7483ZM19.462 12.515C17.9895 12.515 16.6935 12.4563 15.9483 12.4142C15.0109 12.3598 14.2646 11.6227 14.2106 10.6982C14.1229 9.23269 13.933 5.50915 14.0679 2.62919C14.105 1.79226 14.7906 1.12603 15.6291 1.11162C18.0311 1.04289 20.5096 2.14255 22.5373 4.13901C24.5133 6.08669 25.7677 8.64628 25.7317 10.6605C25.7182 11.4464 25.1393 12.1027 24.357 12.2191C22.8306 12.4463 21.0435 12.515 19.462 12.515V12.515Z" fill="#FFAB00"/>
</g>
<path d="M32.7717 11.2052H37.0277L39.8137 20.8372H36.5237L36.1597 18.9892H33.6677L33.2617 20.8372H30.1117L32.7717 11.2052ZM35.8237 17.2672L34.9137 13.0532L33.9617 17.2672H35.8237ZM39.81 13.8232H42.666L43.464 18.3732L44.43 13.8232H46.838L47.818 18.4852L48.616 13.8232H50.912L49.456 20.8372H46.11L45.326 17.1272L44.584 20.8372H41.35L39.81 13.8232ZM55.436 20.9492C54.6614 20.9492 53.9707 20.7952 53.364 20.4872C52.7667 20.1699 52.3 19.7406 51.964 19.1992C51.628 18.6486 51.46 18.0279 51.46 17.3372C51.46 16.6279 51.6327 15.9979 51.978 15.4472C52.3234 14.8966 52.79 14.4719 53.378 14.1732C53.966 13.8746 54.6194 13.7252 55.338 13.7252C56.0287 13.7252 56.6167 13.8792 57.102 14.1872C57.5967 14.4859 57.9654 14.8966 58.208 15.4192C58.4507 15.9326 58.572 16.5112 58.572 17.1552C58.572 17.3232 58.5627 17.4446 58.544 17.5192L54.344 18.0652C54.456 18.3919 54.638 18.6299 54.89 18.7792C55.142 18.9192 55.4734 18.9892 55.884 18.9892C56.5187 18.9892 57.2047 18.8259 57.942 18.4992L58.292 20.3752C57.424 20.7579 56.472 20.9492 55.436 20.9492ZM56.402 16.3012C56.2527 15.7132 55.898 15.4192 55.338 15.4192C55.002 15.4192 54.736 15.5452 54.54 15.7972C54.344 16.0492 54.2414 16.3759 54.232 16.7772L56.402 16.3012ZM62.0113 20.9492C61.0313 20.9492 60.1727 20.8046 59.4353 20.5152L59.7573 18.8492C60.4293 19.0919 61.0827 19.2132 61.7173 19.2132C62.184 19.2132 62.4173 19.0826 62.4173 18.8212C62.4173 18.6906 62.3473 18.5832 62.2073 18.4992C62.0767 18.4152 61.8247 18.3406 61.4513 18.2752C60.6767 18.1259 60.1167 17.8739 59.7713 17.5192C59.4353 17.1646 59.2673 16.6606 59.2673 16.0072C59.3047 15.2699 59.5987 14.7052 60.1493 14.3132C60.7 13.9212 61.4513 13.7252 62.4033 13.7252C62.8887 13.7252 63.304 13.7579 63.6493 13.8232C64.004 13.8792 64.326 13.9772 64.6153 14.1172L64.3213 15.7832C64.0507 15.6806 63.752 15.6012 63.4253 15.5452C63.108 15.4892 62.842 15.4612 62.6273 15.4612C62.31 15.4612 62.0907 15.4939 61.9693 15.5592C61.848 15.6246 61.7873 15.7132 61.7873 15.8252C61.7873 16.0306 62.0207 16.1752 62.4873 16.2592C63.3367 16.4086 63.9713 16.6699 64.3913 17.0432C64.8113 17.4166 65.0213 17.9252 65.0213 18.5692C65.0213 19.3066 64.76 19.8899 64.2373 20.3192C63.724 20.7392 62.982 20.9492 62.0113 20.9492ZM69.7381 20.9492C68.9541 20.9492 68.2541 20.7952 67.6381 20.4872C67.0315 20.1792 66.5555 19.7546 66.2101 19.2132C65.8741 18.6626 65.7061 18.0326 65.7061 17.3232C65.7061 16.6139 65.8788 15.9886 66.2241 15.4472C66.5695 14.8966 67.0455 14.4719 67.6521 14.1732C68.2681 13.8746 68.9681 13.7252 69.7521 13.7252C70.5455 13.7252 71.2455 13.8792 71.8521 14.1872C72.4681 14.4859 72.9441 14.9059 73.2801 15.4472C73.6161 15.9886 73.7841 16.6139 73.7841 17.3232C73.7841 18.0419 73.6115 18.6766 73.2661 19.2272C72.9301 19.7686 72.4541 20.1932 71.8381 20.5012C71.2315 20.7999 70.5315 20.9492 69.7381 20.9492ZM69.7661 18.8492C70.1488 18.8492 70.4615 18.7092 70.7041 18.4292C70.9561 18.1399 71.0821 17.7712 71.0821 17.3232C71.0821 16.8752 70.9561 16.5112 70.7041 16.2312C70.4615 15.9419 70.1488 15.7972 69.7661 15.7972C69.3835 15.7972 69.0661 15.9419 68.8141 16.2312C68.5715 16.5112 68.4501 16.8752 68.4501 17.3232C68.4501 17.7712 68.5715 18.1399 68.8141 18.4292C69.0661 18.7092 69.3835 18.8492 69.7661 18.8492ZM74.8335 13.9212H77.6475V15.3492C77.9648 14.7986 78.3242 14.3926 78.7255 14.1312C79.1362 13.8606 79.6215 13.7252 80.1815 13.7252C80.7322 13.7252 81.2082 13.8652 81.6095 14.1452C82.0202 14.4159 82.3282 14.7846 82.5335 15.2512C83.1308 14.2339 83.9988 13.7252 85.1375 13.7252C85.6788 13.7252 86.1502 13.8699 86.5515 14.1592C86.9622 14.4486 87.2795 14.8686 87.5035 15.4192C87.7275 15.9606 87.8395 16.5999 87.8395 17.3372V20.8372H84.8855V17.3372C84.8855 16.8612 84.8015 16.5019 84.6335 16.2592C84.4748 16.0166 84.2508 15.8952 83.9615 15.8952C83.6442 15.8952 83.3688 16.0306 83.1355 16.3012C82.9115 16.5719 82.7995 16.8986 82.7995 17.2812V20.8372H79.8735V17.3372C79.8735 16.8612 79.7895 16.5019 79.6215 16.2592C79.4628 16.0166 79.2342 15.8952 78.9355 15.8952C78.6182 15.8952 78.3475 16.0306 78.1235 16.3012C77.8995 16.5719 77.7875 16.8986 77.7875 17.2812V20.8372H74.8335V13.9212ZM92.8286 20.9492C92.054 20.9492 91.3633 20.7952 90.7566 20.4872C90.1593 20.1699 89.6926 19.7406 89.3566 19.1992C89.0206 18.6486 88.8526 18.0279 88.8526 17.3372C88.8526 16.6279 89.0253 15.9979 89.3706 15.4472C89.716 14.8966 90.1826 14.4719 90.7706 14.1732C91.3586 13.8746 92.012 13.7252 92.7306 13.7252C93.4213 13.7252 94.0093 13.8792 94.4946 14.1872C94.9893 14.4859 95.358 14.8966 95.6006 15.4192C95.8433 15.9326 95.9646 16.5112 95.9646 17.1552C95.9646 17.3232 95.9553 17.4446 95.9366 17.5192L91.7366 18.0652C91.8486 18.3919 92.0306 18.6299 92.2826 18.7792C92.5346 18.9192 92.866 18.9892 93.2766 18.9892C93.9113 18.9892 94.5973 18.8259 95.3346 18.4992L95.6846 20.3752C94.8166 20.7579 93.8646 20.9492 92.8286 20.9492ZM93.7946 16.3012C93.6453 15.7132 93.2906 15.4192 92.7306 15.4192C92.3946 15.4192 92.1286 15.5452 91.9326 15.7972C91.7366 16.0492 91.634 16.3759 91.6246 16.7772L93.7946 16.3012Z" fill="white"/>
</svg>
