<svg width="27" height="27" viewBox="0 0 27 27" fill="none" xmlns="http://www.w3.org/2000/svg">
  <path fill-rule="evenodd" clip-rule="evenodd" d="M26.1207 13.6298C26.1207 12.6848 26.0359 11.7761 25.8784 10.9038H13.3269V16.0589H20.4992C20.1902 17.7248 19.2513 19.1362 17.8398 20.0812V23.425H22.1468C24.6668 21.1049 26.1207 17.6884 26.1207 13.6298Z" fill="#4285F4"/>
  <path fill-rule="evenodd" clip-rule="evenodd" d="M13.3268 26.6534C16.9251 26.6534 19.9418 25.4601 22.1468 23.4247L17.8398 20.0808C16.6465 20.8805 15.1199 21.353 13.3268 21.353C9.85579 21.353 6.91781 19.0086 5.86983 15.8586H1.41743V19.3115C3.61032 23.667 8.11723 26.6534 13.3268 26.6534Z" fill="#34A853"/>
  <path fill-rule="evenodd" clip-rule="evenodd" d="M5.86989 15.8591C5.60336 15.0595 5.45191 14.2054 5.45191 13.327C5.45191 12.4487 5.60336 11.5945 5.86989 10.7949V7.34204H1.4175C0.514903 9.14117 0 11.1766 0 13.327C0 15.4775 0.514903 17.5129 1.4175 19.312L5.86989 15.8591Z" fill="#FBBC05"/>
  <path fill-rule="evenodd" clip-rule="evenodd" d="M13.3268 5.30047C15.2835 5.30047 17.0402 5.97288 18.4213 7.29345L22.2437 3.47105C19.9358 1.32057 16.919 0 13.3268 0C8.11723 0 3.61032 2.98644 1.41743 7.34191L5.86983 10.7948C6.91781 7.6448 9.85579 5.30047 13.3268 5.30047Z" fill="#EA4335"/>
</svg>
